<svg xmlns="http://www.w3.org/2000/svg" version="1.1" xmlns:xlink="http://www.w3.org/1999/xlink" xmlns:svgjs="http://svgjs.dev/svgjs" viewBox="0 300 800 150"><g stroke-width="4" stroke="rgba(255, 202, 212, 1)" fill="none" stroke-linecap="round" transform="matrix(1,0,0,1,-5,364.55448722839355)"><path d="M10,10C41.25,10.416666666666666,95.41666666666667,17,160,12C224.58333333333331,7,253.33333333333331,-15.875,320,-14C386.6666666666667,-12.125,413.3333333333333,19.333333333333332,480,21C546.6666666666666,22.666666666666668,573.3333333333334,-6.833333333333333,640,-6C706.6666666666666,-5.166666666666667,766.6666666666666,18.541666666666664,800,25"></path><path d="M10,10C41.25,10.416666666666666,95.41666666666667,17,160,12C224.58333333333331,7,253.33333333333331,-15.875,320,-14C386.6666666666667,-12.125,413.3333333333333,19.333333333333332,480,21C546.6666666666666,22.666666666666668,573.3333333333334,-6.833333333333333,640,-6C706.6666666666666,-5.166666666666667,766.6666666666666,18.541666666666664,800,25" transform="matrix(1,0,0,1,0,60)"></path><path d="M10,10C41.25,10.416666666666666,95.41666666666667,17,160,12C224.58333333333331,7,253.33333333333331,-15.875,320,-14C386.6666666666667,-12.125,413.3333333333333,19.333333333333332,480,21C546.6666666666666,22.666666666666668,573.3333333333334,-6.833333333333333,640,-6C706.6666666666666,-5.166666666666667,766.6666666666666,18.541666666666664,800,25" transform="matrix(1,0,0,1,0,40)"></path><path d="M10,10C41.25,10.416666666666666,95.41666666666667,17,160,12C224.58333333333331,7,253.33333333333331,-15.875,320,-14C386.6666666666667,-12.125,413.3333333333333,19.333333333333332,480,21C546.6666666666666,22.666666666666668,573.3333333333334,-6.833333333333333,640,-6C706.6666666666666,-5.166666666666667,766.6666666666666,18.541666666666664,800,25" transform="matrix(1,0,0,1,0,20)"></path></g></svg>