<svg xmlns="http://www.w3.org/2000/svg" version="1.1" xmlns:xlink="http://www.w3.org/1999/xlink" xmlns:svgjs="http://svgjs.dev/svgjs" viewBox="0 300 800 150" opacity="1"><g stroke-width="4" stroke="rgba(255, 202, 212, 1)" fill="none" stroke-linecap="round" transform="matrix(1,0,0,1,-5,363.4979553222656)"><path d="M10,10C49.583333333333336,11.041666666666666,118.75,18.958333333333332,200,15C281.25,11.041666666666668,316.66666666666663,-10.875,400,-9C483.33333333333337,-7.125,516.6666666666666,24.416666666666668,600,24C683.3333333333334,23.583333333333332,758.3333333333334,-3.708333333333334,800,-11"></path><path d="M10,10C49.583333333333336,11.041666666666666,118.75,18.958333333333332,200,15C281.25,11.041666666666668,316.66666666666663,-10.875,400,-9C483.33333333333337,-7.125,516.6666666666666,24.416666666666668,600,24C683.3333333333334,23.583333333333332,758.3333333333334,-3.708333333333334,800,-11" transform="matrix(1,0,0,1,0,60)"></path><path d="M10,10C49.583333333333336,11.041666666666666,118.75,18.958333333333332,200,15C281.25,11.041666666666668,316.66666666666663,-10.875,400,-9C483.33333333333337,-7.125,516.6666666666666,24.416666666666668,600,24C683.3333333333334,23.583333333333332,758.3333333333334,-3.708333333333334,800,-11" transform="matrix(1,0,0,1,0,40)"></path><path d="M10,10C49.583333333333336,11.041666666666666,118.75,18.958333333333332,200,15C281.25,11.041666666666668,316.66666666666663,-10.875,400,-9C483.33333333333337,-7.125,516.6666666666666,24.416666666666668,600,24C683.3333333333334,23.583333333333332,758.3333333333334,-3.708333333333334,800,-11" transform="matrix(1,0,0,1,0,20)"></path></g></svg>